<svg width="339" height="204" viewBox="0 0 339 204" fill="none" xmlns="http://www.w3.org/2000/svg">
<path d="M142 123V103.5L130 92V75" stroke="black" stroke-width="4"/>
<path d="M130 74C134.971 74 139 69.9706 139 65C139 60.0294 134.971 56 130 56C125.029 56 121 60.0294 121 65C121 69.9706 125.029 74 130 74Z" stroke="black" stroke-width="4"/>
<path d="M149 47C153.971 47 158 42.9706 158 38C158 33.0294 153.971 29 149 29C144.029 29 140 33.0294 140 38C140 42.9706 144.029 47 149 47Z" stroke="black" stroke-width="4"/>
<path d="M176 66C180.971 66 185 61.9706 185 57C185 52.0294 180.971 48 176 48C171.029 48 167 52.0294 167 57C167 61.9706 171.029 66 176 66Z" stroke="black" stroke-width="4"/>
<path d="M191 105C195.971 105 200 100.971 200 96C200 91.0294 195.971 87 191 87C186.029 87 182 91.0294 182 96C182 100.971 186.029 105 191 105Z" stroke="black" stroke-width="4"/>
<path d="M209 20C213.971 20 218 15.9706 218 11C218 6.02944 213.971 2 209 2C204.029 2 200 6.02944 200 11C200 15.9706 204.029 20 209 20Z" stroke="black" stroke-width="4"/>
<path d="M151 123V105L209 47.5V22" stroke="black" stroke-width="4"/>
<path d="M160.5 123V76L148.5 64.5V48" stroke="black" stroke-width="4"/>
<path d="M176 123.5V66" stroke="black" stroke-width="4"/>
<path d="M191.5 122.5V106.5" stroke="black" stroke-width="4"/>
<path d="M58.838 170V137.965H72.383C74.5903 137.965 76.4823 138.338 78.059 139.083C79.6357 139.828 80.8397 140.903 81.671 142.308C82.5023 143.684 82.918 145.361 82.918 147.339C82.918 148.744 82.531 150.091 81.757 151.381C80.983 152.642 79.7073 153.703 77.93 154.563V151.295C79.6213 151.954 80.9257 152.743 81.843 153.66C82.7603 154.577 83.391 155.581 83.735 156.67C84.079 157.731 84.251 158.849 84.251 160.024C84.251 163.177 83.2047 165.628 81.112 167.377C79.0193 169.126 76.1097 170 72.383 170H58.838ZM65.503 164.195H73.157C74.5043 164.195 75.5793 163.808 76.382 163.034C77.1847 162.26 77.586 161.257 77.586 160.024C77.586 158.763 77.1847 157.745 76.382 156.971C75.5793 156.197 74.5043 155.81 73.157 155.81H65.503V164.195ZM65.503 150.005H72.856C73.888 150.005 74.705 149.718 75.307 149.145C75.9377 148.543 76.253 147.755 76.253 146.78C76.253 145.805 75.9377 145.031 75.307 144.458C74.705 143.856 73.888 143.555 72.856 143.555H65.503V150.005ZM88.5265 170V137.965H95.1915V170H88.5265ZM98.5072 170L109.343 137.965H118.201L129.037 170H121.77L119.62 163.464H107.881L105.731 170H98.5072ZM109.73 157.659H117.771L112.869 142.523H114.675L109.73 157.659ZM132.366 170V137.965H137.483L154.683 160.626L151.931 161.271V137.965H158.596V170H153.436L136.537 147.167L139.031 146.522V170H132.366ZM179.502 170.516C177.209 170.516 175.073 170.1 173.095 169.269C171.146 168.438 169.44 167.277 167.978 165.786C166.516 164.295 165.37 162.547 164.538 160.54C163.736 158.533 163.334 156.34 163.334 153.961C163.334 151.582 163.736 149.389 164.538 147.382C165.341 145.347 166.473 143.598 167.935 142.136C169.397 140.645 171.103 139.499 173.052 138.696C175.03 137.865 177.18 137.449 179.502 137.449C181.824 137.449 183.903 137.836 185.737 138.61C187.601 139.384 189.177 140.416 190.467 141.706C191.757 142.996 192.675 144.429 193.219 146.006L187.328 148.844C186.784 147.296 185.823 146.02 184.447 145.017C183.1 143.985 181.452 143.469 179.502 143.469C177.61 143.469 175.948 143.913 174.514 144.802C173.081 145.691 171.963 146.923 171.16 148.5C170.386 150.048 169.999 151.868 169.999 153.961C169.999 156.054 170.386 157.888 171.16 159.465C171.963 161.042 173.081 162.274 174.514 163.163C175.948 164.052 177.61 164.496 179.502 164.496C181.452 164.496 183.1 163.994 184.447 162.991C185.823 161.959 186.784 160.669 187.328 159.121L193.219 161.959C192.675 163.536 191.757 164.969 190.467 166.259C189.177 167.549 187.601 168.581 185.737 169.355C183.903 170.129 181.824 170.516 179.502 170.516ZM197.496 170V137.965H204.161V151.811H216.631V137.965H223.296V170H216.631V157.616H204.161V170H197.496ZM228.99 170V137.965H235.655V170H228.99ZM241.336 170V137.965H246.453L263.653 160.626L260.901 161.271V137.965H267.566V170H262.406L245.507 147.167L248.001 146.522V170H241.336ZM273.25 170V137.965H279.915V170H273.25Z" fill="black"/>
<path d="M6.30683 199H1.59802V184.455H6.45598C7.88117 184.455 9.10512 184.746 10.1278 185.328C11.1506 185.906 11.9342 186.737 12.4787 187.821C13.0279 188.901 13.3026 190.196 13.3026 191.706C13.3026 193.221 13.0256 194.523 12.4716 195.612C11.9223 196.701 11.1269 197.539 10.0852 198.126C9.04357 198.709 7.7841 199 6.30683 199ZM3.79262 197.082H6.18609C7.29404 197.082 8.21497 196.874 8.94887 196.457C9.68278 196.036 10.232 195.428 10.5966 194.632C10.9612 193.832 11.1435 192.857 11.1435 191.706C11.1435 190.565 10.9612 189.597 10.5966 188.801C10.2367 188.006 9.69935 187.402 8.98439 186.99C8.26942 186.578 7.38164 186.372 6.32103 186.372H3.79262V197.082ZM16.0316 199V184.455H25.1509V186.344H18.2262V190.776H24.6751V192.658H18.2262V197.111H25.2362V199H16.0316ZM36.0156 188.276C35.9399 187.603 35.6274 187.082 35.0781 186.713C34.5289 186.339 33.8376 186.152 33.0043 186.152C32.4077 186.152 31.8916 186.247 31.456 186.436C31.0204 186.621 30.6818 186.876 30.4403 187.203C30.2036 187.525 30.0852 187.892 30.0852 188.304C30.0852 188.65 30.1657 188.948 30.3267 189.199C30.4924 189.45 30.7079 189.661 30.973 189.831C31.2429 189.997 31.5317 190.136 31.8395 190.25C32.1473 190.359 32.4432 190.449 32.7273 190.52L34.1477 190.889C34.6117 191.003 35.0876 191.157 35.5753 191.351C36.063 191.545 36.5152 191.801 36.9318 192.118C37.3485 192.435 37.6847 192.828 37.9403 193.297C38.2008 193.766 38.331 194.327 38.331 194.98C38.331 195.804 38.1179 196.536 37.6918 197.175C37.2704 197.814 36.6572 198.318 35.8523 198.688C35.0521 199.057 34.0838 199.241 32.9474 199.241C31.8584 199.241 30.9162 199.069 30.1207 198.723C29.3253 198.377 28.7027 197.887 28.2528 197.253C27.803 196.614 27.5545 195.856 27.5071 194.98H29.7088C29.7514 195.506 29.9219 195.944 30.2202 196.294C30.5232 196.64 30.9091 196.898 31.3778 197.068C31.8513 197.234 32.3698 197.317 32.9332 197.317C33.5535 197.317 34.1051 197.22 34.5881 197.026C35.0758 196.827 35.4593 196.552 35.7386 196.202C36.018 195.847 36.1577 195.432 36.1577 194.959C36.1577 194.528 36.0346 194.175 35.7884 193.901C35.5469 193.626 35.2178 193.399 34.8011 193.219C34.3892 193.039 33.9228 192.88 33.402 192.743L31.6832 192.274C30.5185 191.957 29.5952 191.491 28.9134 190.875C28.2363 190.259 27.8977 189.445 27.8977 188.432C27.8977 187.594 28.125 186.862 28.5795 186.237C29.0341 185.612 29.6496 185.127 30.4261 184.781C31.2027 184.431 32.0786 184.256 33.054 184.256C34.0388 184.256 34.9077 184.429 35.6605 184.774C36.4181 185.12 37.0147 185.596 37.4503 186.202C37.8859 186.803 38.1132 187.494 38.1321 188.276H36.0156ZM40.9535 199V184.455H50.0728V186.344H43.1481V190.776H49.5969V192.658H43.1481V197.111H50.158V199H40.9535ZM64.7443 184.455V199H62.7273L55.3338 188.332H55.1989V199H53.0043V184.455H55.0355L62.4361 195.136H62.571V184.455H64.7443ZM69.217 184.455L73.2653 196.301H73.4286L77.4769 184.455H79.8491L74.6147 199H72.0792L66.8448 184.455H69.217ZM93.8619 191.727C93.8619 193.28 93.5778 194.616 93.0096 195.733C92.4414 196.846 91.6625 197.703 90.6729 198.304C89.6881 198.901 88.5683 199.199 87.3136 199.199C86.0541 199.199 84.9296 198.901 83.94 198.304C82.9551 197.703 82.1786 196.843 81.6104 195.726C81.0423 194.608 80.7582 193.276 80.7582 191.727C80.7582 190.174 81.0423 188.841 81.6104 187.729C82.1786 186.611 82.9551 185.754 83.94 185.158C84.9296 184.556 86.0541 184.256 87.3136 184.256C88.5683 184.256 89.6881 184.556 90.6729 185.158C91.6625 185.754 92.4414 186.611 93.0096 187.729C93.5778 188.841 93.8619 190.174 93.8619 191.727ZM91.6886 191.727C91.6886 190.544 91.4968 189.547 91.1133 188.737C90.7345 187.923 90.2137 187.307 89.5508 186.891C88.8926 186.469 88.1469 186.259 87.3136 186.259C86.4755 186.259 85.7274 186.469 85.0692 186.891C84.4111 187.307 83.8903 187.923 83.5067 188.737C83.128 189.547 82.9386 190.544 82.9386 191.727C82.9386 192.911 83.128 193.91 83.5067 194.724C83.8903 195.534 84.4111 196.15 85.0692 196.571C85.7274 196.988 86.4755 197.196 87.3136 197.196C88.1469 197.196 88.8926 196.988 89.5508 196.571C90.2137 196.15 90.7345 195.534 91.1133 194.724C91.4968 193.91 91.6886 192.911 91.6886 191.727ZM96.598 199V184.455H98.7926V197.111H105.384V199H96.598ZM107.733 184.455L111.781 196.301H111.944L115.993 184.455H118.365L113.13 199H110.595L105.36 184.455H107.733ZM120.465 199V184.455H129.585V186.344H122.66V190.776H129.109V192.658H122.66V197.111H129.67V199H120.465ZM144.256 184.455V199H142.239L134.846 188.332H134.711V199H132.516V184.455H134.547L141.948 195.136H142.083V184.455H144.256ZM152.166 199H147.457V184.455H152.315C153.741 184.455 154.964 184.746 155.987 185.328C157.01 185.906 157.794 186.737 158.338 187.821C158.887 188.901 159.162 190.196 159.162 191.706C159.162 193.221 158.885 194.523 158.331 195.612C157.782 196.701 156.986 197.539 155.945 198.126C154.903 198.709 153.643 199 152.166 199ZM149.652 197.082H152.045C153.153 197.082 154.074 196.874 154.808 196.457C155.542 196.036 156.091 195.428 156.456 194.632C156.821 193.832 157.003 192.857 157.003 191.706C157.003 190.565 156.821 189.597 156.456 188.801C156.096 188.006 155.559 187.402 154.844 186.99C154.129 186.578 153.241 186.372 152.18 186.372H149.652V197.082ZM174.526 191.727C174.526 193.28 174.242 194.616 173.674 195.733C173.105 196.846 172.327 197.703 171.337 198.304C170.352 198.901 169.232 199.199 167.978 199.199C166.718 199.199 165.594 198.901 164.604 198.304C163.619 197.703 162.843 196.843 162.275 195.726C161.706 194.608 161.422 193.276 161.422 191.727C161.422 190.174 161.706 188.841 162.275 187.729C162.843 186.611 163.619 185.754 164.604 185.158C165.594 184.556 166.718 184.256 167.978 184.256C169.232 184.256 170.352 184.556 171.337 185.158C172.327 185.754 173.105 186.611 173.674 187.729C174.242 188.841 174.526 190.174 174.526 191.727ZM172.353 191.727C172.353 190.544 172.161 189.547 171.777 188.737C171.399 187.923 170.878 187.307 170.215 186.891C169.557 186.469 168.811 186.259 167.978 186.259C167.14 186.259 166.391 186.469 165.733 186.891C165.075 187.307 164.554 187.923 164.171 188.737C163.792 189.547 163.603 190.544 163.603 191.727C163.603 192.911 163.792 193.91 164.171 194.724C164.554 195.534 165.075 196.15 165.733 196.571C166.391 196.988 167.14 197.196 167.978 197.196C168.811 197.196 169.557 196.988 170.215 196.571C170.878 196.15 171.399 195.534 171.777 194.724C172.161 193.91 172.353 192.911 172.353 191.727ZM182.555 199V184.455H187.74C188.871 184.455 189.809 184.661 190.552 185.072C191.296 185.484 191.852 186.048 192.221 186.763C192.591 187.473 192.775 188.273 192.775 189.163C192.775 190.058 192.588 190.863 192.214 191.578C191.845 192.288 191.286 192.852 190.538 193.268C189.795 193.68 188.859 193.886 187.733 193.886H184.167V192.026H187.534C188.249 192.026 188.829 191.902 189.274 191.656C189.719 191.405 190.046 191.064 190.254 190.634C190.462 190.203 190.566 189.713 190.566 189.163C190.566 188.614 190.462 188.126 190.254 187.7C190.046 187.274 189.717 186.94 189.267 186.699C188.822 186.457 188.234 186.337 187.505 186.337H184.75V199H182.555ZM195.348 199V184.455H204.467V186.344H197.543V190.776H203.991V192.658H197.543V197.111H204.553V199H195.348ZM219.139 184.455V199H217.122L209.728 188.332H209.593V199H207.399V184.455H209.43L216.831 195.136H216.966V184.455H219.139ZM230.273 188.276C230.198 187.603 229.885 187.082 229.336 186.713C228.787 186.339 228.095 186.152 227.262 186.152C226.665 186.152 226.149 186.247 225.714 186.436C225.278 186.621 224.94 186.876 224.698 187.203C224.461 187.525 224.343 187.892 224.343 188.304C224.343 188.65 224.424 188.948 224.585 189.199C224.75 189.45 224.966 189.661 225.231 189.831C225.501 189.997 225.79 190.136 226.097 190.25C226.405 190.359 226.701 190.449 226.985 190.52L228.406 190.889C228.87 191.003 229.345 191.157 229.833 191.351C230.321 191.545 230.773 191.801 231.19 192.118C231.606 192.435 231.942 192.828 232.198 193.297C232.459 193.766 232.589 194.327 232.589 194.98C232.589 195.804 232.376 196.536 231.95 197.175C231.528 197.814 230.915 198.318 230.11 198.688C229.31 199.057 228.342 199.241 227.205 199.241C226.116 199.241 225.174 199.069 224.379 198.723C223.583 198.377 222.96 197.887 222.511 197.253C222.061 196.614 221.812 195.856 221.765 194.98H223.967C224.009 195.506 224.18 195.944 224.478 196.294C224.781 196.64 225.167 196.898 225.636 197.068C226.109 197.234 226.628 197.317 227.191 197.317C227.811 197.317 228.363 197.22 228.846 197.026C229.334 196.827 229.717 196.552 229.996 196.202C230.276 195.847 230.415 195.432 230.415 194.959C230.415 194.528 230.292 194.175 230.046 193.901C229.805 193.626 229.476 193.399 229.059 193.219C228.647 193.039 228.181 192.88 227.66 192.743L225.941 192.274C224.776 191.957 223.853 191.491 223.171 190.875C222.494 190.259 222.156 189.445 222.156 188.432C222.156 187.594 222.383 186.862 222.837 186.237C223.292 185.612 223.907 185.127 224.684 184.781C225.46 184.431 226.336 184.256 227.312 184.256C228.297 184.256 229.165 184.429 229.918 184.774C230.676 185.12 231.272 185.596 231.708 186.202C232.144 186.803 232.371 187.494 232.39 188.276H230.273ZM236.323 199H233.993L239.228 184.455H241.763L246.998 199H244.668L240.556 187.097H240.442L236.323 199ZM236.713 193.304H244.27V195.151H236.713V193.304ZM249.098 184.455H251.761L256.392 195.761H256.562L261.193 184.455H263.857V199H261.768V188.474H261.634L257.344 198.979H255.611L251.321 188.467H251.186V199H249.098V184.455ZM267.047 199V184.455H276.167V186.344H269.242V190.776H275.691V192.658H269.242V197.111H276.252V199H267.047ZM290.838 184.455V199H288.821L281.428 188.332H281.293V199H279.098V184.455H281.129L288.53 195.136H288.665V184.455H290.838ZM293.322 186.344V184.455H304.579V186.344H300.041V199H297.853V186.344H293.322ZM319.077 191.727C319.077 193.28 318.793 194.616 318.224 195.733C317.656 196.846 316.877 197.703 315.888 198.304C314.903 198.901 313.783 199.199 312.528 199.199C311.269 199.199 310.144 198.901 309.155 198.304C308.17 197.703 307.393 196.843 306.825 195.726C306.257 194.608 305.973 193.276 305.973 191.727C305.973 190.174 306.257 188.841 306.825 187.729C307.393 186.611 308.17 185.754 309.155 185.158C310.144 184.556 311.269 184.256 312.528 184.256C313.783 184.256 314.903 184.556 315.888 185.158C316.877 185.754 317.656 186.611 318.224 187.729C318.793 188.841 319.077 190.174 319.077 191.727ZM316.903 191.727C316.903 190.544 316.712 189.547 316.328 188.737C315.949 187.923 315.429 187.307 314.766 186.891C314.107 186.469 313.362 186.259 312.528 186.259C311.69 186.259 310.942 186.469 310.284 186.891C309.626 187.307 309.105 187.923 308.722 188.737C308.343 189.547 308.153 190.544 308.153 191.727C308.153 192.911 308.343 193.91 308.722 194.724C309.105 195.534 309.626 196.15 310.284 196.571C310.942 196.988 311.69 197.196 312.528 197.196C313.362 197.196 314.107 196.988 314.766 196.571C315.429 196.15 315.949 195.534 316.328 194.724C316.712 193.91 316.903 192.911 316.903 191.727ZM329.746 188.276C329.67 187.603 329.358 187.082 328.809 186.713C328.259 186.339 327.568 186.152 326.735 186.152C326.138 186.152 325.622 186.247 325.186 186.436C324.751 186.621 324.412 186.876 324.171 187.203C323.934 187.525 323.816 187.892 323.816 188.304C323.816 188.65 323.896 188.948 324.057 189.199C324.223 189.45 324.438 189.661 324.703 189.831C324.973 189.997 325.262 190.136 325.57 190.25C325.878 190.359 326.174 190.449 326.458 190.52L327.878 190.889C328.342 191.003 328.818 191.157 329.306 191.351C329.793 191.545 330.246 191.801 330.662 192.118C331.079 192.435 331.415 192.828 331.671 193.297C331.931 193.766 332.061 194.327 332.061 194.98C332.061 195.804 331.848 196.536 331.422 197.175C331.001 197.814 330.388 198.318 329.583 198.688C328.783 199.057 327.814 199.241 326.678 199.241C325.589 199.241 324.647 199.069 323.851 198.723C323.056 198.377 322.433 197.887 321.983 197.253C321.533 196.614 321.285 195.856 321.238 194.98H323.439C323.482 195.506 323.652 195.944 323.951 196.294C324.254 196.64 324.64 196.898 325.108 197.068C325.582 197.234 326.1 197.317 326.664 197.317C327.284 197.317 327.836 197.22 328.319 197.026C328.806 196.827 329.19 196.552 329.469 196.202C329.748 195.847 329.888 195.432 329.888 194.959C329.888 194.528 329.765 194.175 329.519 193.901C329.277 193.626 328.948 193.399 328.532 193.219C328.12 193.039 327.653 192.88 327.132 192.743L325.414 192.274C324.249 191.957 323.326 191.491 322.644 190.875C321.967 190.259 321.628 189.445 321.628 188.432C321.628 187.594 321.855 186.862 322.31 186.237C322.765 185.612 323.38 185.127 324.157 184.781C324.933 184.431 325.809 184.256 326.784 184.256C327.769 184.256 328.638 184.429 329.391 184.774C330.149 185.12 330.745 185.596 331.181 186.202C331.616 186.803 331.844 187.494 331.863 188.276H329.746ZM335.913 199.135C335.524 199.135 335.191 198.998 334.911 198.723C334.632 198.444 334.492 198.107 334.492 197.714C334.492 197.326 334.632 196.995 334.911 196.72C335.191 196.441 335.524 196.301 335.913 196.301C336.301 196.301 336.635 196.441 336.914 196.72C337.193 196.995 337.333 197.326 337.333 197.714C337.333 197.975 337.267 198.214 337.134 198.432C337.006 198.645 336.836 198.815 336.623 198.943C336.41 199.071 336.173 199.135 335.913 199.135Z" fill="black"/>
</svg>
